<svg xmlns="http://www.w3.org/2000/svg" xmlns:xlink="http://www.w3.org/1999/xlink" viewBox="0 0 731.41 147.27"><defs><style>.a{fill:none;}.b{fill:#4252cf;}.c{clip-path:url(#a);}</style><clipPath id="a" transform="translate(0 0)"><rect class="a" width="731.41" height="147.27"/></clipPath></defs><path class="b" d="M0,2.27V145H95.4V99.19H51.87V2.27Z" transform="translate(0 0)"/><path class="b" d="M110,145h51.87V2.28H110Z" transform="translate(0 0)"/><g class="c"><path class="b" d="M402.36,145H342.54l-22.71-38.25H236.62V145H185.89V2.27H330.81c32.18,0,59.43,13.63,59.43,49.6,0,21.58-7,32.77-26.27,39.21ZM236.62,66.8h85.86c8.52,0,17-1.33,17-11.93,0-11-7.76-12.3-16.65-12.3H236.62Z" transform="translate(0 0)"/><path class="b" d="M560.29,74c0,45.81-35.4,73.26-78.94,73.26S402.42,119.82,402.42,74c0-44.86,35.58-74,78.94-74s78.93,29.15,78.93,74m-105.63.76c0,16.28,11,27.45,26.69,27.45S508,91.05,508,74.77C508,59.63,497.82,47,481.36,47s-26.7,12.68-26.7,27.82" transform="translate(0 0)"/><path class="b" d="M731.41,74c0,45.81-35.4,73.26-78.93,73.26S573.54,119.82,573.54,74c0-44.86,35.59-74,78.94-74s78.93,29.15,78.93,74m-105.62.76c0,16.28,11,27.45,26.69,27.45s26.69-11.17,26.69-27.45C679.17,59.63,669,47,652.48,47s-26.69,12.68-26.69,27.82" transform="translate(0 0)"/></g></svg>